# xmcd
#
# Track frame offsets:
#	150
#	12919
#	25134
#	41219
#	53349
#	66099
#
# Disc length: 1052 seconds
#
# Revision: 0
# Processed by: cddbd v1.5.2PL0 Copyright (c) Steve Scherf et al.
# Submitted via: EasyCDDAExtractor 2010.6.0.0
#
DISCID=43041a06
DTITLE=Gospel Artists - Piney Road Promotions
DYEAR=2013
DGENRE=Gospel
TTITLE0=The Primitive Qt. - Just Look How He Found Me
TTITLE1=Dennis Thompson - Gonna Leave This World Shouting
TTITLE2=The Singing Cooks - Good Morning Child
TTITLE3=Heavens Mountain Band - I Can't Help Myself
TTITLE4=Mike Devore - Grandma Prayed
TTITLE5=Marvin Morrow - I Am The Man
EXTD=
EXTT0=
EXTT1=
EXTT2=
EXTT3=
EXTT4=
EXTT5=
PLAYORDER=
